  0
SECTION
  2
HEADER
  9
$ACADVER
  1
AC1014
  9
$HANDSEED
  5
FFFF
  9
$INSUNITS
 70
     4
  9
$MEASUREMENT
 70
     1
  0
ENDSEC
  0
SECTION
  2
TABLES
  0
TABLE
  2
VPORT
  5
8
330
0
100
AcDbSymbolTable
 70
     4
  0
VPORT
  5
2E
330
8
100
AcDbSymbolTableRecord
100
AcDbViewportTableRecord
  2
*ACTIVE
 70
     0
 10
0.0
 20
0.0
 11
1.0
 21
1.0
 12
210.0
 22
148.5
 13
0.0
 23
0.0
 14
10.0
 24
10.0
 15
10.0
 25
10.0
 16
0.0
 26
0.0
 36
1.0
 17
0.0
 27
0.0
 37
0.0
 40
341.0
 41
1.24
 42
50.0
 43
0.0
 44
0.0
 50
0.0
 51
0.0
 71
     0
 72
   100
 73
     1
 74
     3
 75
     0
 76
     0
 77
     0
 78
     0
  0
ENDTAB
  0
TABLE
  2
LTYPE
  5
5
330
0
100
AcDbSymbolTable
 70
     1
  0
LTYPE
  5
14
330
5
100
AcDbSymbolTableRecord
100
AcDbLinetypeTableRecord
  2
BYBLOCK
 70
     0
  3

 72
    65
 73
     0
 40
0.0
  0
LTYPE
  5
15
330
5
100
AcDbSymbolTableRecord
100
AcDbLinetypeTableRecord
  2
BYLAYER
 70
     0
  3

 72
    65
 73
     0
 40
0.0
  0
LTYPE
  5
16
330
5
100
AcDbSymbolTableRecord
100
AcDbLinetypeTableRecord
  2
CONTINUOUS
 70
     0
  3
Solid line
 72
    65
 73
     0
 40
0.0
  0
ENDTAB
  0
TABLE
  2
LAYER
  5
2
100
AcDbSymbolTable
 70
1
  0
LAYER
  5
50
100
AcDbSymbolTableRecord
100
AcDbLayerTableRecord
  2
0
 70
0
  6
CONTINUOUS
  0
ENDTAB
  0
TABLE
  2
STYLE
  5
3
330
0
100
AcDbSymbolTable
 70
     1
  0
STYLE
  5
11
330
3
100
AcDbSymbolTableRecord
100
AcDbTextStyleTableRecord
  2
STANDARD
 70
     0
 40
0.0
 41
1.0
 50
0.0
 71
     0
 42
2.5
  3
txt
  4

  0
ENDTAB
  0
TABLE
  2
VIEW
  5
6
330
0
100
AcDbSymbolTable
 70
     0
  0
ENDTAB
  0
TABLE
  2
UCS
  5
7
330
0
100
AcDbSymbolTable
 70
     0
  0
ENDTAB
  0
TABLE
  2
APPID
  5
9
330
0
100
AcDbSymbolTable
 70
     2
  0
APPID
  5
12
330
9
100
AcDbSymbolTableRecord
100
AcDbRegAppTableRecord
  2
ACAD
 70
     0
  0
ENDTAB
  0
TABLE
  2
DIMSTYLE
  5
A
330
0
100
AcDbSymbolTable
 70
     1
  0
DIMSTYLE
105
27
330
A
100
AcDbSymbolTableRecord
100
AcDbDimStyleTableRecord
  2
ISO-25
 70
     0
  3

  4

  5

  6

  7

 40
1.0
 41
2.5
 42
0.625
 43
3.75
 44
1.25
 45
0.0
 46
0.0
 47
0.0
 48
0.0
140
2.5
141
2.5
142
0.0
143
0.03937007874016
144
1.0
145
0.0
146
1.0
147
0.625
 71
     0
 72
     0
 73
     0
 74
     0
 75
     0
 76
     0
 77
     1
 78
     8
170
     0
171
     3
172
     1
173
     0
174
     0
175
     0
176
     0
177
     0
178
     0
270
     2
271
     2
272
     2
273
     2
274
     3
340
11
275
     0
280
     0
281
     0
282
     0
283
     0
284
     8
285
     0
286
     0
287
     3
288
     0
  0
ENDTAB
  0
TABLE
  2
BLOCK_RECORD
  5
1
330
0
100
AcDbSymbolTable
 70
     1
  0
BLOCK_RECORD
  5
1F
330
1
100
AcDbSymbolTableRecord
100
AcDbBlockTableRecord
  2
*MODEL_SPACE
  0
BLOCK_RECORD
  5
1B
330
1
100
AcDbSymbolTableRecord
100
AcDbBlockTableRecord
  2
*PAPER_SPACE
  0
ENDTAB
  0
ENDSEC
  0
SECTION
  2
BLOCKS
  0
BLOCK
  5
20
330
1F
100
AcDbEntity
  8
0
100
AcDbBlockBegin
  2
*MODEL_SPACE
 70
     0
 10
0.0
 20
0.0
 30
0.0
  3
*MODEL_SPACE
  1

  0
ENDBLK
  5
21
330
1F
100
AcDbEntity
  8
0
100
AcDbBlockEnd
  0
BLOCK
  5
1C
330
1B
100
AcDbEntity
 67
     1
  8
0
100
AcDbBlockBegin
  2
*PAPER_SPACE
  1

  0
ENDBLK
  5
1D
330
1B
100
AcDbEntity
 67
     1
  8
0
100
AcDbBlockEnd
  0
ENDSEC
  0
SECTION
  2
ENTITIES
  0
LINE
  5
100
100
AcDbEntity
  8
0
 62
7
100
AcDbLine
 10
43.875201
 20
76.924797
 30
0.0
 11
57.874701
 21
76.924797
 31
0.0
  0
LINE
  5
101
100
AcDbEntity
  8
0
 62
7
100
AcDbLine
 10
57.874701
 20
76.924797
 30
0.0
 11
57.874701
 21
62.925297
 31
0.0
  0
LINE
  5
102
100
AcDbEntity
  8
0
 62
7
100
AcDbLine
 10
57.874701
 20
62.925297
 30
0.0
 11
43.875201
 21
62.925297
 31
0.0
  0
LINE
  5
103
100
AcDbEntity
  8
0
 62
7
100
AcDbLine
 10
43.875201
 20
62.925297
 30
0.0
 11
43.875201
 21
76.924797
 31
0.0
  0
LINE
  5
104
100
AcDbEntity
  8
0
 62
7
100
AcDbLine
 10
138.981303
 20
25.474996
 30
0.0
 11
146.125004
 21
25.474996
 31
0.0
  0
SPLINE
  5
105
100
AcDbEntity
  8
0
 62
7
100
AcDbSpline
 70
8
 71
3
 72
8
 73
4
 74
0
 40
0
 40
0
 40
0
 40
0
 40
1
 40
1
 40
1
 40
1
 10
123.900003
 20
67.543797
 30
0.0
 10
123.057941
 20
67.543797
 30
0.0
 10
122.250367
 20
67.209289
 30
0.0
 10
121.654939
 20
66.613861
 30
0.0
  0
SPLINE
  5
106
100
AcDbEntity
  8
0
 62
7
100
AcDbSpline
 70
8
 71
3
 72
8
 73
4
 74
0
 40
0
 40
0
 40
0
 40
0
 40
1
 40
1
 40
1
 40
1
 10
121.654939
 20
66.613861
 30
0.0
 10
121.059511
 20
66.018433
 30
0.0
 10
120.725003
 20
65.210859
 30
0.0
 10
120.725003
 20
64.368797
 30
0.0
  0
LINE
  5
107
100
AcDbEntity
  8
0
 62
7
100
AcDbLine
 10
24.825201
 20
57.874796
 30
0.0
 11
38.824701
 21
57.874796
 31
0.0
  0
LINE
  5
108
100
AcDbEntity
  8
0
 62
7
100
AcDbLine
 10
38.824701
 20
57.874796
 30
0.0
 11
38.824701
 21
43.875296
 31
0.0
  0
LINE
  5
109
100
AcDbEntity
  8
0
 62
7
100
AcDbLine
 10
38.824701
 20
43.875296
 30
0.0
 11
24.825201
 21
43.875296
 31
0.0
  0
LINE
  5
10a
100
AcDbEntity
  8
0
 62
7
100
AcDbLine
 10
24.825201
 20
43.875296
 30
0.0
 11
24.825201
 21
57.874796
 31
0.0
  0
LINE
  5
10b
100
AcDbEntity
  8
0
 62
7
100
AcDbLine
 10
0.075000
 20
22.299996
 30
0.0
 11
0.075000
 21
79.449997
 31
0.0
  0
LINE
  5
10c
100
AcDbEntity
  8
0
 62
7
100
AcDbLine
 10
146.125004
 20
0.074995
 30
0.0
 11
69.925002
 21
0.074995
 31
0.0
  0
LINE
  5
10d
100
AcDbEntity
  8
0
 62
7
100
AcDbLine
 10
123.900003
 20
45.318796
 30
0.0
 11
131.837503
 21
45.318796
 31
0.0
  0
LINE
  5
10e
100
AcDbEntity
  8
0
 62
7
100
AcDbLine
 10
129.600203
 20
19.774795
 30
0.0
 11
143.599703
 21
19.774795
 31
0.0
  0
LINE
  5
10f
100
AcDbEntity
  8
0
 62
7
100
AcDbLine
 10
143.599703
 20
19.774795
 30
0.0
 11
143.599703
 21
5.775295
 31
0.0
  0
LINE
  5
110
100
AcDbEntity
  8
0
 62
7
100
AcDbLine
 10
143.599703
 20
5.775295
 30
0.0
 11
129.600203
 21
5.775295
 31
0.0
  0
LINE
  5
111
100
AcDbEntity
  8
0
 62
7
100
AcDbLine
 10
129.600203
 20
5.775295
 30
0.0
 11
129.600203
 21
19.774795
 31
0.0
  0
SPLINE
  5
112
100
AcDbEntity
  8
0
 62
7
100
AcDbSpline
 70
8
 71
3
 72
8
 73
4
 74
0
 40
0
 40
0
 40
0
 40
0
 40
1
 40
1
 40
1
 40
1
 10
149.300004
 20
22.299996
 30
0.0
 10
149.300004
 20
23.142058
 30
0.0
 10
148.965496
 20
23.949632
 30
0.0
 10
148.370068
 20
24.545060
 30
0.0
  0
SPLINE
  5
113
100
AcDbEntity
  8
0
 62
7
100
AcDbSpline
 70
8
 71
3
 72
8
 73
4
 74
0
 40
0
 40
0
 40
0
 40
0
 40
1
 40
1
 40
1
 40
1
 10
148.370068
 20
24.545060
 30
0.0
 10
147.774640
 20
25.140488
 30
0.0
 10
146.967066
 20
25.474996
 30
0.0
 10
146.125004
 20
25.474996
 30
0.0
  0
LINE
  5
114
100
AcDbEntity
  8
0
 62
7
100
AcDbLine
 10
63.575002
 20
19.124995
 30
0.0
 11
3.250000
 21
19.124995
 31
0.0
  0
SPLINE
  5
115
100
AcDbEntity
  8
0
 62
7
100
AcDbSpline
 70
8
 71
3
 72
8
 73
4
 74
0
 40
0
 40
0
 40
0
 40
0
 40
1
 40
1
 40
1
 40
1
 10
0.075000
 20
22.299996
 30
0.0
 10
0.075000
 20
21.457933
 30
0.0
 10
0.409508
 20
20.650359
 30
0.0
 10
1.004936
 20
20.054931
 30
0.0
  0
SPLINE
  5
116
100
AcDbEntity
  8
0
 62
7
100
AcDbSpline
 70
8
 71
3
 72
8
 73
4
 74
0
 40
0
 40
0
 40
0
 40
0
 40
1
 40
1
 40
1
 40
1
 10
1.004936
 20
20.054931
 30
0.0
 10
1.600364
 20
19.459503
 30
0.0
 10
2.407938
 20
19.124995
 30
0.0
 10
3.250000
 20
19.124995
 30
0.0
  0
SPLINE
  5
117
100
AcDbEntity
  8
0
 62
7
100
AcDbSpline
 70
8
 71
3
 72
8
 73
4
 74
0
 40
0
 40
0
 40
0
 40
0
 40
1
 40
1
 40
1
 40
1
 10
66.750002
 20
15.949995
 30
0.0
 10
66.750002
 20
16.792058
 30
0.0
 10
66.415494
 20
17.599631
 30
0.0
 10
65.820066
 20
18.195059
 30
0.0
  0
SPLINE
  5
118
100
AcDbEntity
  8
0
 62
7
100
AcDbSpline
 70
8
 71
3
 72
8
 73
4
 74
0
 40
0
 40
0
 40
0
 40
0
 40
1
 40
1
 40
1
 40
1
 10
65.820066
 20
18.195059
 30
0.0
 10
65.224638
 20
18.790487
 30
0.0
 10
64.417064
 20
19.124995
 30
0.0
 10
63.575002
 20
19.124995
 30
0.0
  0
SPLINE
  5
119
100
AcDbEntity
  8
0
 62
7
100
AcDbSpline
 70
8
 71
3
 72
8
 73
4
 74
0
 40
0
 40
0
 40
0
 40
0
 40
1
 40
1
 40
1
 40
1
 10
146.125004
 20
0.074995
 30
0.0
 10
146.967066
 20
0.074995
 30
0.0
 10
147.774640
 20
0.409503
 30
0.0
 10
148.370068
 20
1.004931
 30
0.0
  0
SPLINE
  5
11a
100
AcDbEntity
  8
0
 62
7
100
AcDbSpline
 70
8
 71
3
 72
8
 73
4
 74
0
 40
0
 40
0
 40
0
 40
0
 40
1
 40
1
 40
1
 40
1
 10
148.370068
 20
1.004931
 30
0.0
 10
148.965496
 20
1.600359
 30
0.0
 10
149.300004
 20
2.407933
 30
0.0
 10
149.300004
 20
3.249995
 30
0.0
  0
LINE
  5
11b
100
AcDbEntity
  8
0
 62
7
100
AcDbLine
 10
81.975202
 20
57.874796
 30
0.0
 11
95.974702
 21
57.874796
 31
0.0
  0
LINE
  5
11c
100
AcDbEntity
  8
0
 62
7
100
AcDbLine
 10
95.974702
 20
57.874796
 30
0.0
 11
95.974702
 21
43.875296
 31
0.0
  0
LINE
  5
11d
100
AcDbEntity
  8
0
 62
7
100
AcDbLine
 10
95.974702
 20
43.875296
 30
0.0
 11
81.975202
 21
43.875296
 31
0.0
  0
LINE
  5
11e
100
AcDbEntity
  8
0
 62
7
100
AcDbLine
 10
81.975202
 20
43.875296
 30
0.0
 11
81.975202
 21
57.874796
 31
0.0
  0
LINE
  5
11f
100
AcDbEntity
  8
0
 62
7
100
AcDbLine
 10
62.925202
 20
38.824796
 30
0.0
 11
76.924702
 21
38.824796
 31
0.0
  0
LINE
  5
120
100
AcDbEntity
  8
0
 62
7
100
AcDbLine
 10
76.924702
 20
38.824796
 30
0.0
 11
76.924702
 21
24.825296
 31
0.0
  0
LINE
  5
121
100
AcDbEntity
  8
0
 62
7
100
AcDbLine
 10
76.924702
 20
24.825296
 30
0.0
 11
62.925202
 21
24.825296
 31
0.0
  0
LINE
  5
122
100
AcDbEntity
  8
0
 62
7
100
AcDbLine
 10
62.925202
 20
24.825296
 30
0.0
 11
62.925202
 21
38.824796
 31
0.0
  0
LINE
  5
123
100
AcDbEntity
  8
0
 62
7
100
AcDbLine
 10
131.837503
 20
67.543797
 30
0.0
 11
123.900003
 21
67.543797
 31
0.0
  0
LINE
  5
124
100
AcDbEntity
  8
0
 62
7
100
AcDbLine
 10
91.500202
 20
19.774795
 30
0.0
 11
105.499703
 21
19.774795
 31
0.0
  0
LINE
  5
125
100
AcDbEntity
  8
0
 62
7
100
AcDbLine
 10
105.499703
 20
19.774795
 30
0.0
 11
105.499703
 21
5.775295
 31
0.0
  0
LINE
  5
126
100
AcDbEntity
  8
0
 62
7
100
AcDbLine
 10
105.499703
 20
5.775295
 30
0.0
 11
91.500202
 21
5.775295
 31
0.0
  0
LINE
  5
127
100
AcDbEntity
  8
0
 62
7
100
AcDbLine
 10
91.500202
 20
5.775295
 30
0.0
 11
91.500202
 21
19.774795
 31
0.0
  0
LINE
  5
128
100
AcDbEntity
  8
0
 62
7
100
AcDbLine
 10
72.450202
 20
19.774795
 30
0.0
 11
86.449702
 21
19.774795
 31
0.0
  0
LINE
  5
129
100
AcDbEntity
  8
0
 62
7
100
AcDbLine
 10
86.449702
 20
19.774795
 30
0.0
 11
86.449702
 21
5.775295
 31
0.0
  0
LINE
  5
12a
100
AcDbEntity
  8
0
 62
7
100
AcDbLine
 10
86.449702
 20
5.775295
 30
0.0
 11
72.450202
 21
5.775295
 31
0.0
  0
LINE
  5
12b
100
AcDbEntity
  8
0
 62
7
100
AcDbLine
 10
72.450202
 20
5.775295
 30
0.0
 11
72.450202
 21
19.774795
 31
0.0
  0
LINE
  5
12c
100
AcDbEntity
  8
0
 62
7
100
AcDbLine
 10
24.825201
 20
38.824796
 30
0.0
 11
38.824701
 21
38.824796
 31
0.0
  0
LINE
  5
12d
100
AcDbEntity
  8
0
 62
7
100
AcDbLine
 10
38.824701
 20
38.824796
 30
0.0
 11
38.824701
 21
24.825296
 31
0.0
  0
LINE
  5
12e
100
AcDbEntity
  8
0
 62
7
100
AcDbLine
 10
38.824701
 20
24.825296
 30
0.0
 11
24.825201
 21
24.825296
 31
0.0
  0
LINE
  5
12f
100
AcDbEntity
  8
0
 62
7
100
AcDbLine
 10
24.825201
 20
24.825296
 30
0.0
 11
24.825201
 21
38.824796
 31
0.0
  0
SPLINE
  5
130
100
AcDbEntity
  8
0
 62
7
100
AcDbSpline
 70
8
 71
3
 72
8
 73
4
 74
0
 40
0
 40
0
 40
0
 40
0
 40
1
 40
1
 40
1
 40
1
 10
135.012503
 20
64.368797
 30
0.0
 10
135.012503
 20
65.210859
 30
0.0
 10
134.677995
 20
66.018433
 30
0.0
 10
134.082567
 20
66.613861
 30
0.0
  0
SPLINE
  5
131
100
AcDbEntity
  8
0
 62
7
100
AcDbSpline
 70
8
 71
3
 72
8
 73
4
 74
0
 40
0
 40
0
 40
0
 40
0
 40
1
 40
1
 40
1
 40
1
 10
134.082567
 20
66.613861
 30
0.0
 10
133.487139
 20
67.209289
 30
0.0
 10
132.679566
 20
67.543797
 30
0.0
 10
131.837503
 20
67.543797
 30
0.0
  0
SPLINE
  5
132
100
AcDbEntity
  8
0
 62
7
100
AcDbSpline
 70
8
 71
3
 72
8
 73
4
 74
0
 40
0
 40
0
 40
0
 40
0
 40
1
 40
1
 40
1
 40
1
 10
135.012503
 20
71.124998
 30
0.0
 10
134.527149
 20
71.124998
 30
0.0
 10
134.089585
 20
70.832627
 30
0.0
 10
133.903848
 20
70.384218
 30
0.0
  0
SPLINE
  5
133
100
AcDbEntity
  8
0
 62
7
100
AcDbSpline
 70
8
 71
3
 72
8
 73
4
 74
0
 40
0
 40
0
 40
0
 40
0
 40
1
 40
1
 40
1
 40
1
 10
133.903848
 20
70.384218
 30
0.0
 10
133.718111
 20
69.935809
 30
0.0
 10
133.820778
 20
69.419667
 30
0.0
 10
134.163975
 20
69.076470
 30
0.0
  0
SPLINE
  5
134
100
AcDbEntity
  8
0
 62
7
100
AcDbSpline
 70
8
 71
3
 72
8
 73
4
 74
0
 40
0
 40
0
 40
0
 40
0
 40
1
 40
1
 40
1
 40
1
 10
134.163975
 20
69.076470
 30
0.0
 10
134.507173
 20
68.733272
 30
0.0
 10
135.023314
 20
68.630605
 30
0.0
 10
135.471723
 20
68.816342
 30
0.0
  0
SPLINE
  5
135
100
AcDbEntity
  8
0
 62
7
100
AcDbSpline
 70
8
 71
3
 72
8
 73
4
 74
0
 40
0
 40
0
 40
0
 40
0
 40
1
 40
1
 40
1
 40
1
 10
135.471723
 20
68.816342
 30
0.0
 10
135.920133
 20
69.002079
 30
0.0
 10
136.212503
 20
69.439643
 30
0.0
 10
136.212503
 20
69.924998
 30
0.0
  0
SPLINE
  5
136
100
AcDbEntity
  8
0
 62
7
100
AcDbSpline
 70
8
 71
3
 72
8
 73
4
 74
0
 40
0
 40
0
 40
0
 40
0
 40
1
 40
1
 40
1
 40
1
 10
136.212503
 20
69.924998
 30
0.0
 10
136.212503
 20
70.243257
 30
0.0
 10
136.086075
 20
70.548482
 30
0.0
 10
135.861031
 20
70.773526
 30
0.0
  0
SPLINE
  5
137
100
AcDbEntity
  8
0
 62
7
100
AcDbSpline
 70
8
 71
3
 72
8
 73
4
 74
0
 40
0
 40
0
 40
0
 40
0
 40
1
 40
1
 40
1
 40
1
 10
135.861031
 20
70.773526
 30
0.0
 10
135.635988
 20
70.998570
 30
0.0
 10
135.330763
 20
71.124998
 30
0.0
 10
135.012503
 20
71.124998
 30
0.0
  0
LINE
  5
138
100
AcDbEntity
  8
0
 62
7
100
AcDbLine
 10
135.012503
 20
71.124998
 30
0.0
 11
135.012503
 21
71.124998
 31
0.0
  0
LINE
  5
139
100
AcDbEntity
  8
0
 62
7
100
AcDbLine
 10
5.775200
 20
76.924797
 30
0.0
 11
19.774700
 21
76.924797
 31
0.0
  0
LINE
  5
13a
100
AcDbEntity
  8
0
 62
7
100
AcDbLine
 10
19.774700
 20
76.924797
 30
0.0
 11
19.774700
 21
62.925297
 31
0.0
  0
LINE
  5
13b
100
AcDbEntity
  8
0
 62
7
100
AcDbLine
 10
19.774700
 20
62.925297
 30
0.0
 11
5.775200
 21
62.925297
 31
0.0
  0
LINE
  5
13c
100
AcDbEntity
  8
0
 62
7
100
AcDbLine
 10
5.775200
 20
62.925297
 30
0.0
 11
5.775200
 21
76.924797
 31
0.0
  0
LINE
  5
13d
100
AcDbEntity
  8
0
 62
7
100
AcDbLine
 10
149.300004
 20
22.299996
 30
0.0
 11
149.300004
 21
3.249995
 31
0.0
  0
LINE
  5
13e
100
AcDbEntity
  8
0
 62
7
100
AcDbLine
 10
62.925202
 20
57.874796
 30
0.0
 11
76.924702
 21
57.874796
 31
0.0
  0
LINE
  5
13f
100
AcDbEntity
  8
0
 62
7
100
AcDbLine
 10
76.924702
 20
57.874796
 30
0.0
 11
76.924702
 21
43.875296
 31
0.0
  0
LINE
  5
140
100
AcDbEntity
  8
0
 62
7
100
AcDbLine
 10
76.924702
 20
43.875296
 30
0.0
 11
62.925202
 21
43.875296
 31
0.0
  0
LINE
  5
141
100
AcDbEntity
  8
0
 62
7
100
AcDbLine
 10
62.925202
 20
43.875296
 30
0.0
 11
62.925202
 21
57.874796
 31
0.0
  0
LINE
  5
142
100
AcDbEntity
  8
0
 62
7
100
AcDbLine
 10
3.250000
 20
82.624997
 30
0.0
 11
136.600003
 21
82.624997
 31
0.0
  0
LINE
  5
143
100
AcDbEntity
  8
0
 62
7
100
AcDbLine
 10
66.750002
 20
3.249995
 30
0.0
 11
66.750002
 21
15.949995
 31
0.0
  0
LINE
  5
144
100
AcDbEntity
  8
0
 62
7
100
AcDbLine
 10
81.975202
 20
76.924797
 30
0.0
 11
95.974702
 21
76.924797
 31
0.0
  0
LINE
  5
145
100
AcDbEntity
  8
0
 62
7
100
AcDbLine
 10
95.974702
 20
76.924797
 30
0.0
 11
95.974702
 21
62.925297
 31
0.0
  0
LINE
  5
146
100
AcDbEntity
  8
0
 62
7
100
AcDbLine
 10
95.974702
 20
62.925297
 30
0.0
 11
81.975202
 21
62.925297
 31
0.0
  0
LINE
  5
147
100
AcDbEntity
  8
0
 62
7
100
AcDbLine
 10
81.975202
 20
62.925297
 30
0.0
 11
81.975202
 21
76.924797
 31
0.0
  0
LINE
  5
148
100
AcDbEntity
  8
0
 62
7
100
AcDbLine
 10
138.187503
 20
81.037497
 30
0.0
 11
138.187503
 21
26.268796
 31
0.0
  0
SPLINE
  5
149
100
AcDbEntity
  8
0
 62
7
100
AcDbSpline
 70
8
 71
3
 72
8
 73
4
 74
0
 40
0
 40
0
 40
0
 40
0
 40
1
 40
1
 40
1
 40
1
 10
138.187503
 20
26.268796
 30
0.0
 10
138.187503
 20
26.058267
 30
0.0
 10
138.271136
 20
25.856361
 30
0.0
 10
138.420002
 20
25.707494
 30
0.0
  0
SPLINE
  5
14a
100
AcDbEntity
  8
0
 62
7
100
AcDbSpline
 70
8
 71
3
 72
8
 73
4
 74
0
 40
0
 40
0
 40
0
 40
0
 40
1
 40
1
 40
1
 40
1
 10
138.420002
 20
25.707494
 30
0.0
 10
138.568868
 20
25.558628
 30
0.0
 10
138.770775
 20
25.474996
 30
0.0
 10
138.981303
 20
25.474996
 30
0.0
  0
SPLINE
  5
14b
100
AcDbEntity
  8
0
 62
7
100
AcDbSpline
 70
8
 71
3
 72
8
 73
4
 74
0
 40
0
 40
0
 40
0
 40
0
 40
1
 40
1
 40
1
 40
1
 10
120.725003
 20
48.493796
 30
0.0
 10
120.725003
 20
47.651734
 30
0.0
 10
121.059511
 20
46.844160
 30
0.0
 10
121.654939
 20
46.248732
 30
0.0
  0
SPLINE
  5
14c
100
AcDbEntity
  8
0
 62
7
100
AcDbSpline
 70
8
 71
3
 72
8
 73
4
 74
0
 40
0
 40
0
 40
0
 40
0
 40
1
 40
1
 40
1
 40
1
 10
121.654939
 20
46.248732
 30
0.0
 10
122.250367
 20
45.653304
 30
0.0
 10
123.057941
 20
45.318796
 30
0.0
 10
123.900003
 20
45.318796
 30
0.0
  0
SPLINE
  5
14d
100
AcDbEntity
  8
0
 62
7
100
AcDbSpline
 70
8
 71
3
 72
8
 73
4
 74
0
 40
0
 40
0
 40
0
 40
0
 40
1
 40
1
 40
1
 40
1
 10
3.250000
 20
23.499993
 30
0.0
 10
2.764645
 20
23.499993
 30
0.0
 10
2.327082
 20
23.207622
 30
0.0
 10
2.141345
 20
22.759213
 30
0.0
  0
SPLINE
  5
14e
100
AcDbEntity
  8
0
 62
7
100
AcDbSpline
 70
8
 71
3
 72
8
 73
4
 74
0
 40
0
 40
0
 40
0
 40
0
 40
1
 40
1
 40
1
 40
1
 10
2.141345
 20
22.759213
 30
0.0
 10
1.955607
 20
22.310803
 30
0.0
 10
2.058274
 20
21.794662
 30
0.0
 10
2.401472
 20
21.451464
 30
0.0
  0
SPLINE
  5
14f
100
AcDbEntity
  8
0
 62
7
100
AcDbSpline
 70
8
 71
3
 72
8
 73
4
 74
0
 40
0
 40
0
 40
0
 40
0
 40
1
 40
1
 40
1
 40
1
 10
2.401472
 20
21.451464
 30
0.0
 10
2.744670
 20
21.108267
 30
0.0
 10
3.260811
 20
21.005600
 30
0.0
 10
3.709220
 20
21.191337
 30
0.0
  0
SPLINE
  5
150
100
AcDbEntity
  8
0
 62
7
100
AcDbSpline
 70
8
 71
3
 72
8
 73
4
 74
0
 40
0
 40
0
 40
0
 40
0
 40
1
 40
1
 40
1
 40
1
 10
3.709220
 20
21.191337
 30
0.0
 10
4.157629
 20
21.377074
 30
0.0
 10
4.450000
 20
21.814638
 30
0.0
 10
4.450000
 20
22.299993
 30
0.0
  0
SPLINE
  5
151
100
AcDbEntity
  8
0
 62
7
100
AcDbSpline
 70
8
 71
3
 72
8
 73
4
 74
0
 40
0
 40
0
 40
0
 40
0
 40
1
 40
1
 40
1
 40
1
 10
4.450000
 20
22.299993
 30
0.0
 10
4.450000
 20
22.962734
 30
0.0
 10
3.912742
 20
23.499993
 30
0.0
 10
3.250000
 20
23.499993
 30
0.0
  0
LINE
  5
152
100
AcDbEntity
  8
0
 62
7
100
AcDbLine
 10
3.250000
 20
23.499993
 30
0.0
 11
3.250000
 21
23.499993
 31
0.0
  0
LINE
  5
153
100
AcDbEntity
  8
0
 62
7
100
AcDbLine
 10
135.012503
 20
48.493796
 30
0.0
 11
135.012503
 21
64.368797
 31
0.0
  0
LINE
  5
154
100
AcDbEntity
  8
0
 62
7
100
AcDbLine
 10
5.775200
 20
57.874796
 30
0.0
 11
19.774700
 21
57.874796
 31
0.0
  0
LINE
  5
155
100
AcDbEntity
  8
0
 62
7
100
AcDbLine
 10
19.774700
 20
57.874796
 30
0.0
 11
19.774700
 21
43.875296
 31
0.0
  0
LINE
  5
156
100
AcDbEntity
  8
0
 62
7
100
AcDbLine
 10
19.774700
 20
43.875296
 30
0.0
 11
5.775200
 21
43.875296
 31
0.0
  0
LINE
  5
157
100
AcDbEntity
  8
0
 62
7
100
AcDbLine
 10
5.775200
 20
43.875296
 30
0.0
 11
5.775200
 21
57.874796
 31
0.0
  0
SPLINE
  5
158
100
AcDbEntity
  8
0
 62
7
100
AcDbSpline
 70
8
 71
3
 72
8
 73
4
 74
0
 40
0
 40
0
 40
0
 40
0
 40
1
 40
1
 40
1
 40
1
 10
138.187503
 20
81.037497
 30
0.0
 10
138.187503
 20
81.458528
 30
0.0
 10
138.020249
 20
81.862315
 30
0.0
 10
137.722535
 20
82.160029
 30
0.0
  0
SPLINE
  5
159
100
AcDbEntity
  8
0
 62
7
100
AcDbSpline
 70
8
 71
3
 72
8
 73
4
 74
0
 40
0
 40
0
 40
0
 40
0
 40
1
 40
1
 40
1
 40
1
 10
137.722535
 20
82.160029
 30
0.0
 10
137.424821
 20
82.457743
 30
0.0
 10
137.021034
 20
82.624997
 30
0.0
 10
136.600003
 20
82.624997
 30
0.0
  0
LINE
  5
15a
100
AcDbEntity
  8
0
 62
7
100
AcDbLine
 10
101.025202
 20
38.824796
 30
0.0
 11
115.024703
 21
38.824796
 31
0.0
  0
LINE
  5
15b
100
AcDbEntity
  8
0
 62
7
100
AcDbLine
 10
115.024703
 20
38.824796
 30
0.0
 11
115.024703
 21
24.825296
 31
0.0
  0
LINE
  5
15c
100
AcDbEntity
  8
0
 62
7
100
AcDbLine
 10
115.024703
 20
24.825296
 30
0.0
 11
101.025202
 21
24.825296
 31
0.0
  0
LINE
  5
15d
100
AcDbEntity
  8
0
 62
7
100
AcDbLine
 10
101.025202
 20
24.825296
 30
0.0
 11
101.025202
 21
38.824796
 31
0.0
  0
LINE
  5
15e
100
AcDbEntity
  8
0
 62
7
100
AcDbLine
 10
110.550203
 20
19.774795
 30
0.0
 11
124.549703
 21
19.774795
 31
0.0
  0
LINE
  5
15f
100
AcDbEntity
  8
0
 62
7
100
AcDbLine
 10
124.549703
 20
19.774795
 30
0.0
 11
124.549703
 21
5.775295
 31
0.0
  0
LINE
  5
160
100
AcDbEntity
  8
0
 62
7
100
AcDbLine
 10
124.549703
 20
5.775295
 30
0.0
 11
110.550203
 21
5.775295
 31
0.0
  0
LINE
  5
161
100
AcDbEntity
  8
0
 62
7
100
AcDbLine
 10
110.550203
 20
5.775295
 30
0.0
 11
110.550203
 21
19.774795
 31
0.0
  0
SPLINE
  5
162
100
AcDbEntity
  8
0
 62
7
100
AcDbSpline
 70
8
 71
3
 72
8
 73
4
 74
0
 40
0
 40
0
 40
0
 40
0
 40
1
 40
1
 40
1
 40
1
 10
146.124994
 20
4.449995
 30
0.0
 10
145.639639
 20
4.449995
 30
0.0
 10
145.202075
 20
4.157624
 30
0.0
 10
145.016338
 20
3.709215
 30
0.0
  0
SPLINE
  5
163
100
AcDbEntity
  8
0
 62
7
100
AcDbSpline
 70
8
 71
3
 72
8
 73
4
 74
0
 40
0
 40
0
 40
0
 40
0
 40
1
 40
1
 40
1
 40
1
 10
145.016338
 20
3.709215
 30
0.0
 10
144.830601
 20
3.260806
 30
0.0
 10
144.933268
 20
2.744665
 30
0.0
 10
145.276465
 20
2.401467
 30
0.0
  0
SPLINE
  5
164
100
AcDbEntity
  8
0
 62
7
100
AcDbSpline
 70
8
 71
3
 72
8
 73
4
 74
0
 40
0
 40
0
 40
0
 40
0
 40
1
 40
1
 40
1
 40
1
 10
145.276465
 20
2.401467
 30
0.0
 10
145.619663
 20
2.058269
 30
0.0
 10
146.135804
 20
1.955602
 30
0.0
 10
146.584214
 20
2.141340
 30
0.0
  0
SPLINE
  5
165
100
AcDbEntity
  8
0
 62
7
100
AcDbSpline
 70
8
 71
3
 72
8
 73
4
 74
0
 40
0
 40
0
 40
0
 40
0
 40
1
 40
1
 40
1
 40
1
 10
146.584214
 20
2.141340
 30
0.0
 10
147.032623
 20
2.327077
 30
0.0
 10
147.324994
 20
2.764640
 30
0.0
 10
147.324994
 20
3.249995
 30
0.0
  0
SPLINE
  5
166
100
AcDbEntity
  8
0
 62
7
100
AcDbSpline
 70
8
 71
3
 72
8
 73
4
 74
0
 40
0
 40
0
 40
0
 40
0
 40
1
 40
1
 40
1
 40
1
 10
147.324994
 20
3.249995
 30
0.0
 10
147.324994
 20
3.568255
 30
0.0
 10
147.198565
 20
3.873480
 30
0.0
 10
146.973522
 20
4.098523
 30
0.0
  0
SPLINE
  5
167
100
AcDbEntity
  8
0
 62
7
100
AcDbSpline
 70
8
 71
3
 72
8
 73
4
 74
0
 40
0
 40
0
 40
0
 40
0
 40
1
 40
1
 40
1
 40
1
 10
146.973522
 20
4.098523
 30
0.0
 10
146.748478
 20
4.323567
 30
0.0
 10
146.443253
 20
4.449995
 30
0.0
 10
146.124994
 20
4.449995
 30
0.0
  0
LINE
  5
168
100
AcDbEntity
  8
0
 62
7
100
AcDbLine
 10
146.124994
 20
4.449995
 30
0.0
 11
146.124994
 21
4.449995
 31
0.0
  0
LINE
  5
169
100
AcDbEntity
  8
0
 62
7
100
AcDbLine
 10
5.775200
 20
38.824796
 30
0.0
 11
19.774700
 21
38.824796
 31
0.0
  0
LINE
  5
16a
100
AcDbEntity
  8
0
 62
7
100
AcDbLine
 10
19.774700
 20
38.824796
 30
0.0
 11
19.774700
 21
24.825296
 31
0.0
  0
LINE
  5
16b
100
AcDbEntity
  8
0
 62
7
100
AcDbLine
 10
19.774700
 20
24.825296
 30
0.0
 11
5.775200
 21
24.825296
 31
0.0
  0
LINE
  5
16c
100
AcDbEntity
  8
0
 62
7
100
AcDbLine
 10
5.775200
 20
24.825296
 30
0.0
 11
5.775200
 21
38.824796
 31
0.0
  0
LINE
  5
16d
100
AcDbEntity
  8
0
 62
7
100
AcDbLine
 10
43.875201
 20
57.874796
 30
0.0
 11
57.874701
 21
57.874796
 31
0.0
  0
LINE
  5
16e
100
AcDbEntity
  8
0
 62
7
100
AcDbLine
 10
57.874701
 20
57.874796
 30
0.0
 11
57.874701
 21
43.875296
 31
0.0
  0
LINE
  5
16f
100
AcDbEntity
  8
0
 62
7
100
AcDbLine
 10
57.874701
 20
43.875296
 30
0.0
 11
43.875201
 21
43.875296
 31
0.0
  0
LINE
  5
170
100
AcDbEntity
  8
0
 62
7
100
AcDbLine
 10
43.875201
 20
43.875296
 30
0.0
 11
43.875201
 21
57.874796
 31
0.0
  0
SPLINE
  5
171
100
AcDbEntity
  8
0
 62
7
100
AcDbSpline
 70
8
 71
3
 72
8
 73
4
 74
0
 40
0
 40
0
 40
0
 40
0
 40
1
 40
1
 40
1
 40
1
 10
66.750002
 20
3.249995
 30
0.0
 10
66.750002
 20
2.407933
 30
0.0
 10
67.084510
 20
1.600359
 30
0.0
 10
67.679938
 20
1.004931
 30
0.0
  0
SPLINE
  5
172
100
AcDbEntity
  8
0
 62
7
100
AcDbSpline
 70
8
 71
3
 72
8
 73
4
 74
0
 40
0
 40
0
 40
0
 40
0
 40
1
 40
1
 40
1
 40
1
 10
67.679938
 20
1.004931
 30
0.0
 10
68.275366
 20
0.409503
 30
0.0
 10
69.082939
 20
0.074995
 30
0.0
 10
69.925002
 20
0.074995
 30
0.0
  0
LINE
  5
173
100
AcDbEntity
  8
0
 62
7
100
AcDbLine
 10
81.975202
 20
38.824796
 30
0.0
 11
95.974702
 21
38.824796
 31
0.0
  0
LINE
  5
174
100
AcDbEntity
  8
0
 62
7
100
AcDbLine
 10
95.974702
 20
38.824796
 30
0.0
 11
95.974702
 21
24.825296
 31
0.0
  0
LINE
  5
175
100
AcDbEntity
  8
0
 62
7
100
AcDbLine
 10
95.974702
 20
24.825296
 30
0.0
 11
81.975202
 21
24.825296
 31
0.0
  0
LINE
  5
176
100
AcDbEntity
  8
0
 62
7
100
AcDbLine
 10
81.975202
 20
24.825296
 30
0.0
 11
81.975202
 21
38.824796
 31
0.0
  0
SPLINE
  5
177
100
AcDbEntity
  8
0
 62
7
100
AcDbSpline
 70
8
 71
3
 72
8
 73
4
 74
0
 40
0
 40
0
 40
0
 40
0
 40
1
 40
1
 40
1
 40
1
 10
3.250000
 20
82.624997
 30
0.0
 10
2.407938
 20
82.624997
 30
0.0
 10
1.600364
 20
82.290489
 30
0.0
 10
1.004936
 20
81.695061
 30
0.0
  0
SPLINE
  5
178
100
AcDbEntity
  8
0
 62
7
100
AcDbSpline
 70
8
 71
3
 72
8
 73
4
 74
0
 40
0
 40
0
 40
0
 40
0
 40
1
 40
1
 40
1
 40
1
 10
1.004936
 20
81.695061
 30
0.0
 10
0.409508
 20
81.099633
 30
0.0
 10
0.075000
 20
80.292059
 30
0.0
 10
0.075000
 20
79.449997
 30
0.0
  0
LINE
  5
179
100
AcDbEntity
  8
0
 62
7
100
AcDbLine
 10
120.725003
 20
64.368797
 30
0.0
 11
120.725003
 21
48.493796
 31
0.0
  0
LINE
  5
17a
100
AcDbEntity
  8
0
 62
7
100
AcDbLine
 10
62.925202
 20
76.924797
 30
0.0
 11
76.924702
 21
76.924797
 31
0.0
  0
LINE
  5
17b
100
AcDbEntity
  8
0
 62
7
100
AcDbLine
 10
76.924702
 20
76.924797
 30
0.0
 11
76.924702
 21
62.925297
 31
0.0
  0
LINE
  5
17c
100
AcDbEntity
  8
0
 62
7
100
AcDbLine
 10
76.924702
 20
62.925297
 30
0.0
 11
62.925202
 21
62.925297
 31
0.0
  0
LINE
  5
17d
100
AcDbEntity
  8
0
 62
7
100
AcDbLine
 10
62.925202
 20
62.925297
 30
0.0
 11
62.925202
 21
76.924797
 31
0.0
  0
LINE
  5
17e
100
AcDbEntity
  8
0
 62
7
100
AcDbLine
 10
24.825201
 20
76.924797
 30
0.0
 11
38.824701
 21
76.924797
 31
0.0
  0
LINE
  5
17f
100
AcDbEntity
  8
0
 62
7
100
AcDbLine
 10
38.824701
 20
76.924797
 30
0.0
 11
38.824701
 21
62.925297
 31
0.0
  0
LINE
  5
180
100
AcDbEntity
  8
0
 62
7
100
AcDbLine
 10
38.824701
 20
62.925297
 30
0.0
 11
24.825201
 21
62.925297
 31
0.0
  0
LINE
  5
181
100
AcDbEntity
  8
0
 62
7
100
AcDbLine
 10
24.825201
 20
62.925297
 30
0.0
 11
24.825201
 21
76.924797
 31
0.0
  0
SPLINE
  5
182
100
AcDbEntity
  8
0
 62
7
100
AcDbSpline
 70
8
 71
3
 72
8
 73
4
 74
0
 40
0
 40
0
 40
0
 40
0
 40
1
 40
1
 40
1
 40
1
 10
3.250000
 20
80.649995
 30
0.0
 10
2.764645
 20
80.649995
 30
0.0
 10
2.327082
 20
80.357624
 30
0.0
 10
2.141345
 20
79.909215
 30
0.0
  0
SPLINE
  5
183
100
AcDbEntity
  8
0
 62
7
100
AcDbSpline
 70
8
 71
3
 72
8
 73
4
 74
0
 40
0
 40
0
 40
0
 40
0
 40
1
 40
1
 40
1
 40
1
 10
2.141345
 20
79.909215
 30
0.0
 10
1.955607
 20
79.460806
 30
0.0
 10
2.058274
 20
78.944664
 30
0.0
 10
2.401472
 20
78.601467
 30
0.0
  0
SPLINE
  5
184
100
AcDbEntity
  8
0
 62
7
100
AcDbSpline
 70
8
 71
3
 72
8
 73
4
 74
0
 40
0
 40
0
 40
0
 40
0
 40
1
 40
1
 40
1
 40
1
 10
2.401472
 20
78.601467
 30
0.0
 10
2.744670
 20
78.258269
 30
0.0
 10
3.260811
 20
78.155602
 30
0.0
 10
3.709220
 20
78.341339
 30
0.0
  0
SPLINE
  5
185
100
AcDbEntity
  8
0
 62
7
100
AcDbSpline
 70
8
 71
3
 72
8
 73
4
 74
0
 40
0
 40
0
 40
0
 40
0
 40
1
 40
1
 40
1
 40
1
 10
3.709220
 20
78.341339
 30
0.0
 10
4.157629
 20
78.527077
 30
0.0
 10
4.450000
 20
78.964640
 30
0.0
 10
4.450000
 20
79.449995
 30
0.0
  0
SPLINE
  5
186
100
AcDbEntity
  8
0
 62
7
100
AcDbSpline
 70
8
 71
3
 72
8
 73
4
 74
0
 40
0
 40
0
 40
0
 40
0
 40
1
 40
1
 40
1
 40
1
 10
4.450000
 20
79.449995
 30
0.0
 10
4.450000
 20
80.112737
 30
0.0
 10
3.912742
 20
80.649995
 30
0.0
 10
3.250000
 20
80.649995
 30
0.0
  0
LINE
  5
187
100
AcDbEntity
  8
0
 62
7
100
AcDbLine
 10
3.250000
 20
80.649995
 30
0.0
 11
3.250000
 21
80.649995
 31
0.0
  0
SPLINE
  5
188
100
AcDbEntity
  8
0
 62
7
100
AcDbSpline
 70
8
 71
3
 72
8
 73
4
 74
0
 40
0
 40
0
 40
0
 40
0
 40
1
 40
1
 40
1
 40
1
 10
131.837503
 20
45.318796
 30
0.0
 10
132.679566
 20
45.318796
 30
0.0
 10
133.487139
 20
45.653304
 30
0.0
 10
134.082567
 20
46.248732
 30
0.0
  0
SPLINE
  5
189
100
AcDbEntity
  8
0
 62
7
100
AcDbSpline
 70
8
 71
3
 72
8
 73
4
 74
0
 40
0
 40
0
 40
0
 40
0
 40
1
 40
1
 40
1
 40
1
 10
134.082567
 20
46.248732
 30
0.0
 10
134.677995
 20
46.844160
 30
0.0
 10
135.012503
 20
47.651734
 30
0.0
 10
135.012503
 20
48.493796
 30
0.0
  0
LINE
  5
18a
100
AcDbEntity
  8
0
 62
7
100
AcDbLine
 10
101.025202
 20
76.924797
 30
0.0
 11
115.024703
 21
76.924797
 31
0.0
  0
LINE
  5
18b
100
AcDbEntity
  8
0
 62
7
100
AcDbLine
 10
115.024703
 20
76.924797
 30
0.0
 11
115.024703
 21
62.925297
 31
0.0
  0
LINE
  5
18c
100
AcDbEntity
  8
0
 62
7
100
AcDbLine
 10
115.024703
 20
62.925297
 30
0.0
 11
101.025202
 21
62.925297
 31
0.0
  0
LINE
  5
18d
100
AcDbEntity
  8
0
 62
7
100
AcDbLine
 10
101.025202
 20
62.925297
 30
0.0
 11
101.025202
 21
76.924797
 31
0.0
  0
LINE
  5
18e
100
AcDbEntity
  8
0
 62
7
100
AcDbLine
 10
43.875201
 20
38.824796
 30
0.0
 11
57.874701
 21
38.824796
 31
0.0
  0
LINE
  5
18f
100
AcDbEntity
  8
0
 62
7
100
AcDbLine
 10
57.874701
 20
38.824796
 30
0.0
 11
57.874701
 21
24.825296
 31
0.0
  0
LINE
  5
190
100
AcDbEntity
  8
0
 62
7
100
AcDbLine
 10
57.874701
 20
24.825296
 30
0.0
 11
43.875201
 21
24.825296
 31
0.0
  0
LINE
  5
191
100
AcDbEntity
  8
0
 62
7
100
AcDbLine
 10
43.875201
 20
24.825296
 30
0.0
 11
43.875201
 21
38.824796
 31
0.0
  0
LINE
  5
192
100
AcDbEntity
  8
0
 62
7
100
AcDbLine
 10
101.025202
 20
57.874796
 30
0.0
 11
115.024703
 21
57.874796
 31
0.0
  0
LINE
  5
193
100
AcDbEntity
  8
0
 62
7
100
AcDbLine
 10
115.024703
 20
57.874796
 30
0.0
 11
115.024703
 21
43.875296
 31
0.0
  0
LINE
  5
194
100
AcDbEntity
  8
0
 62
7
100
AcDbLine
 10
115.024703
 20
43.875296
 30
0.0
 11
101.025202
 21
43.875296
 31
0.0
  0
LINE
  5
195
100
AcDbEntity
  8
0
 62
7
100
AcDbLine
 10
101.025202
 20
43.875296
 30
0.0
 11
101.025202
 21
57.874796
 31
0.0
  0
ENDSEC
  0
SECTION
  2
OBJECTS
  0
DICTIONARY
  5
C
330
0
100
AcDbDictionary
  3
ACAD_GROUP
350
D
  3
ACAD_MLINESTYLE
350
17
  0
DICTIONARY
  5
D
330
C
100
AcDbDictionary
  0
DICTIONARY
  5
1A
330
C
100
AcDbDictionary
  0
DICTIONARY
  5
17
330
C
100
AcDbDictionary
  3
STANDARD
350
18
  0
DICTIONARY
  5
19
330
C
100
AcDbDictionary
  0
ENDSEC
  0
EOF
